<svg xmlns="http://www.w3.org/2000/svg" width="980" height="282" viewBox="0 0 980 282"><rect width="980" height="282" rx="16" fill="white"/><text x="24" y="40" font-family="Segoe UI,Arial" font-size="20" font-weight="600" fill="#152C43">Romanian TimeBank aspectual link</text><rect x="24" y="84" width="210" height="136" rx="12" fill="#EEF3F8" stroke="#BDCEDB"/><text x="42" y="110" font-family="Segoe UI,Arial" font-size="13" fill="#53697D">STEP 1</text><text x="42" y="145" font-family="Segoe UI,Arial" font-size="17" font-weight="600" fill="#20364A">Original authored input</text><path d="M 238 154 h 17 m -7 -6 l 7 6 -7 6" fill="none" stroke="#007F78" stroke-width="3"/><rect x="261" y="84" width="210" height="136" rx="12" fill="#EEF3F8" stroke="#BDCEDB"/><text x="279" y="110" font-family="Segoe UI,Arial" font-size="13" fill="#53697D">STEP 2</text><text x="279" y="145" font-family="Segoe UI,Arial" font-size="17" font-weight="600" fill="#20364A">Real HTTP / TypeScript</text><text x="279" y="168" font-family="Segoe UI,Arial" font-size="17" font-weight="600" fill="#20364A">UI</text><path d="M 475 154 h 17 m -7 -6 l 7 6 -7 6" fill="none" stroke="#007F78" stroke-width="3"/><rect x="498" y="84" width="210" height="136" rx="12" fill="#EEF3F8" stroke="#BDCEDB"/><text x="516" y="110" font-family="Segoe UI,Arial" font-size="13" fill="#53697D">STEP 3</text><text x="516" y="145" font-family="Segoe UI,Arial" font-size="17" font-weight="600" fill="#20364A">Verified ML.NET model</text><path d="M 712 154 h 17 m -7 -6 l 7 6 -7 6" fill="none" stroke="#007F78" stroke-width="3"/><rect x="735" y="84" width="210" height="136" rx="12" fill="#E8F4F1" stroke="#BDCEDB"/><text x="753" y="110" font-family="Segoe UI,Arial" font-size="13" fill="#53697D">STEP 4</text><text x="753" y="145" font-family="Segoe UI,Arial" font-size="17" font-weight="600" fill="#20364A">INITIATES / INITIATES</text><text x="24" y="257" font-family="Segoe UI,Arial" font-size="17" fill="#53697D">Label agreement verifies software behavior, not semantic correctness</text></svg>