<svg xmlns="http://www.w3.org/2000/svg" width="1200" height="864" viewBox="0 0 1200 864" role="img" aria-label="TYM time-yard diagram"><rect width="100%" height="100%" fill="#ffffff"/><style>text{dominant-baseline:auto}</style><line x1="105.0" y1="76.0" x2="1120.0" y2="76.0" stroke="#374151" stroke-width="2" stroke-linecap="round"/><line x1="105.0" y1="64.0" x2="105.0" y2="88.0" stroke="#111827" stroke-width="1.5" stroke-linecap="round"/><text x="113.0" y="54.0" text-anchor="middle" font-family="Arial, Helvetica, sans-serif" font-size="13" font-weight="400" fill="#111827">TS1</text><line x1="274.2" y1="64.0" x2="274.2" y2="88.0" stroke="#111827" stroke-width="1.5" stroke-linecap="round"/><text x="282.2" y="110.0" text-anchor="middle" font-family="Arial, Helvetica, sans-serif" font-size="13" font-weight="400" fill="#111827">TS2</text><line x1="443.3" y1="64.0" x2="443.3" y2="88.0" stroke="#111827" stroke-width="1.5" stroke-linecap="round"/><text x="451.3" y="54.0" text-anchor="middle" font-family="Arial, Helvetica, sans-serif" font-size="13" font-weight="400" fill="#111827">TS3</text><line x1="612.5" y1="64.0" x2="612.5" y2="88.0" stroke="#111827" stroke-width="1.5" stroke-linecap="round"/><text x="620.5" y="110.0" text-anchor="middle" font-family="Arial, Helvetica, sans-serif" font-size="13" font-weight="400" fill="#111827">TS4</text><line x1="781.7" y1="64.0" x2="781.7" y2="88.0" stroke="#111827" stroke-width="1.5" stroke-linecap="round"/><text x="789.7" y="54.0" text-anchor="middle" font-family="Arial, Helvetica, sans-serif" font-size="13" font-weight="400" fill="#111827">TS5</text><line x1="950.8" y1="64.0" x2="950.8" y2="88.0" stroke="#111827" stroke-width="1.5" stroke-linecap="round"/><text x="958.8" y="110.0" text-anchor="middle" font-family="Arial, Helvetica, sans-serif" font-size="13" font-weight="400" fill="#111827">TS6</text><line x1="1120.0" y1="64.0" x2="1120.0" y2="88.0" stroke="#111827" stroke-width="1.5" stroke-linecap="round"/><text x="18.0" y="163.0" text-anchor="start" font-family="Arial, Helvetica, sans-serif" font-size="12" font-weight="700" fill="#111827">TT1: Adam&amp;Johan</text><polygon points="57.0,146.0 57.0,170.0 79.0,158.0" fill="#dbeafe" stroke="#111827" stroke-width="1.5"/><polygon points="298.0,146.0 298.0,170.0 276.0,158.0" fill="#dbeafe" stroke="#111827" stroke-width="1.5"/><line x1="105.0" y1="158.0" x2="250.0" y2="158.0" stroke="#111827" stroke-width="5" stroke-linecap="round"/><rect x="92.0" y="146.0" width="26.0" height="24.0" fill="#dbeafe" stroke="#111827" stroke-width="1.5" rx="2"/><text x="105.0" y="162.0" text-anchor="middle" font-family="Arial, Helvetica, sans-serif" font-size="10" font-weight="700" fill="#111827">TS1</text><line x1="250.0" y1="145.0" x2="250.0" y2="171.0" stroke="#111827" stroke-width="1.4" stroke-linecap="round"/><text x="177.5" y="133.0" text-anchor="middle" font-family="Arial, Helvetica, sans-serif" font-size="12" font-weight="400" fill="#111827">TS1: Adam and Johan grew up in the same house.</text><text x="18.0" y="249.0" text-anchor="start" font-family="Arial, Helvetica, sans-serif" font-size="12" font-weight="700" fill="#111827">TT2: Karl&amp;Adam</text><polygon points="57.0,232.0 57.0,256.0 79.0,244.0" fill="#dbeafe" stroke="#111827" stroke-width="1.5"/><polygon points="298.0,232.0 298.0,256.0 276.0,244.0" fill="#dbeafe" stroke="#111827" stroke-width="1.5"/><line x1="105.0" y1="244.0" x2="250.0" y2="244.0" stroke="#111827" stroke-width="5" stroke-linecap="round" stroke-dasharray="2 6"/><rect x="92.0" y="232.0" width="26.0" height="24.0" fill="#dbeafe" stroke="#111827" stroke-width="1.5" rx="2"/><text x="105.0" y="248.0" text-anchor="middle" font-family="Arial, Helvetica, sans-serif" font-size="10" font-weight="700" fill="#111827">TS2</text><line x1="250.0" y1="231.0" x2="250.0" y2="257.0" stroke="#111827" stroke-width="1.4" stroke-linecap="round"/><text x="177.5" y="219.0" text-anchor="middle" font-family="Arial, Helvetica, sans-serif" font-size="12" font-weight="400" fill="#111827">TS2: Years earlier, Karl had carried Adam throug...</text><text x="177.5" y="235.0" text-anchor="middle" font-family="Arial, Helvetica, sans-serif" font-size="10" font-weight="700" fill="#111827">REM</text><text x="18.0" y="335.0" text-anchor="start" font-family="Arial, Helvetica, sans-serif" font-size="12" font-weight="700" fill="#111827">TT3: Margaret</text><polygon points="57.0,318.0 57.0,342.0 79.0,330.0" fill="#dbeafe" stroke="#111827" stroke-width="1.5"/><polygon points="298.0,318.0 298.0,342.0 276.0,330.0" fill="#dbeafe" stroke="#111827" stroke-width="1.5"/><line x1="105.0" y1="330.0" x2="250.0" y2="330.0" stroke="#111827" stroke-width="2.4" stroke-linecap="round" stroke-dasharray="2 6"/><rect x="92.0" y="318.0" width="26.0" height="24.0" fill="#dbeafe" stroke="#111827" stroke-width="1.5" rx="2"/><text x="105.0" y="334.0" text-anchor="middle" font-family="Arial, Helvetica, sans-serif" font-size="10" font-weight="700" fill="#111827">TS3</text><line x1="250.0" y1="317.0" x2="250.0" y2="343.0" stroke="#111827" stroke-width="1.4" stroke-linecap="round"/><text x="177.5" y="305.0" text-anchor="middle" font-family="Arial, Helvetica, sans-serif" font-size="12" font-weight="400" fill="#111827">TS3: Margaret remembered her mother in Jakarta.</text><text x="177.5" y="321.0" text-anchor="middle" font-family="Arial, Helvetica, sans-serif" font-size="10" font-weight="700" fill="#111827">REM</text><text x="18.0" y="421.0" text-anchor="start" font-family="Arial, Helvetica, sans-serif" font-size="12" font-weight="700" fill="#111827">TT4: Karl</text><polygon points="57.0,404.0 57.0,428.0 79.0,416.0" fill="#dbeafe" stroke="#111827" stroke-width="1.5"/><polygon points="298.0,404.0 298.0,428.0 276.0,416.0" fill="#dbeafe" stroke="#111827" stroke-width="1.5"/><line x1="105.0" y1="416.0" x2="250.0" y2="416.0" stroke="#111827" stroke-width="2.4" stroke-linecap="round"/><rect x="92.0" y="404.0" width="26.0" height="24.0" fill="#dbeafe" stroke="#111827" stroke-width="1.5" rx="2"/><text x="105.0" y="420.0" text-anchor="middle" font-family="Arial, Helvetica, sans-serif" font-size="10" font-weight="700" fill="#111827">TS4</text><line x1="250.0" y1="403.0" x2="250.0" y2="429.0" stroke="#111827" stroke-width="1.4" stroke-linecap="round"/><text x="177.5" y="391.0" text-anchor="middle" font-family="Arial, Helvetica, sans-serif" font-size="12" font-weight="400" fill="#111827">TS4: Meanwhile, Karl traveled alone across the i...</text><text x="18.0" y="507.0" text-anchor="start" font-family="Arial, Helvetica, sans-serif" font-size="12" font-weight="700" fill="#111827">TT5: Adam&amp;Margaret</text><polygon points="57.0,490.0 57.0,514.0 79.0,502.0" fill="#dbeafe" stroke="#111827" stroke-width="1.5"/><polygon points="298.0,490.0 298.0,514.0 276.0,502.0" fill="#dbeafe" stroke="#111827" stroke-width="1.5"/><line x1="105.0" y1="502.0" x2="250.0" y2="502.0" stroke="#111827" stroke-width="5" stroke-linecap="round"/><rect x="92.0" y="490.0" width="26.0" height="24.0" fill="#dbeafe" stroke="#111827" stroke-width="1.5" rx="2"/><text x="105.0" y="506.0" text-anchor="middle" font-family="Arial, Helvetica, sans-serif" font-size="10" font-weight="700" fill="#111827">TS5</text><line x1="250.0" y1="489.0" x2="250.0" y2="515.0" stroke="#111827" stroke-width="1.4" stroke-linecap="round"/><text x="177.5" y="477.0" text-anchor="middle" font-family="Arial, Helvetica, sans-serif" font-size="12" font-weight="400" fill="#111827">TS5: Adam searched for Margaret after the storm....</text><text x="18.0" y="593.0" text-anchor="start" font-family="Arial, Helvetica, sans-serif" font-size="12" font-weight="700" fill="#111827">TT6: Adam</text><polygon points="57.0,576.0 57.0,600.0 79.0,588.0" fill="#dbeafe" stroke="#111827" stroke-width="1.5"/><polygon points="298.0,576.0 298.0,600.0 276.0,588.0" fill="#dbeafe" stroke="#111827" stroke-width="1.5"/><line x1="105.0" y1="588.0" x2="250.0" y2="588.0" stroke="#111827" stroke-width="5" stroke-linecap="round"/><rect x="92.0" y="576.0" width="26.0" height="24.0" fill="#dbeafe" stroke="#111827" stroke-width="1.5" rx="2"/><text x="105.0" y="592.0" text-anchor="middle" font-family="Arial, Helvetica, sans-serif" font-size="10" font-weight="700" fill="#111827">TS6</text><line x1="250.0" y1="575.0" x2="250.0" y2="601.0" stroke="#111827" stroke-width="1.4" stroke-linecap="round"/><text x="177.5" y="563.0" text-anchor="middle" font-family="Arial, Helvetica, sans-serif" font-size="12" font-weight="400" fill="#111827">TS6: Adam disappeared before dawn.</text><text x="105.0" y="682.0" text-anchor="start" font-family="Arial, Helvetica, sans-serif" font-size="11" font-weight="400" fill="#111827">EP1: SPLIT at TS4</text><text x="285.0" y="682.0" text-anchor="start" font-family="Arial, Helvetica, sans-serif" font-size="11" font-weight="400" fill="#111827">EP2: JOIN at TS5</text><text x="465.0" y="682.0" text-anchor="start" font-family="Arial, Helvetica, sans-serif" font-size="11" font-weight="400" fill="#111827">EP3: SPLIT at TS6</text><rect x="18.0" y="728.0" width="1164.0" height="112.0" fill="#f9fafb" stroke="#d1d5db" stroke-width="1.2" rx="6"/><text x="36.0" y="753.0" text-anchor="start" font-family="Arial, Helvetica, sans-serif" font-size="13" font-weight="700" fill="#111827">Legend</text><line x1="36.0" y1="772.0" x2="80.0" y2="772.0" stroke="#111827" stroke-width="2.4" stroke-linecap="round"/><text x="92.0" y="776.0" text-anchor="start" font-family="Arial, Helvetica, sans-serif" font-size="11" font-weight="400" fill="#111827">Solid line: narrative continuity</text><line x1="617.0" y1="772.0" x2="661.0" y2="772.0" stroke="#111827" stroke-width="2.4" stroke-linecap="round" stroke-dasharray="2 6"/><text x="673.0" y="776.0" text-anchor="start" font-family="Arial, Helvetica, sans-serif" font-size="11" font-weight="400" fill="#111827">Dotted line: REM/SUP/GEN/FIC segment</text><polygon points="33.0,787.0 33.0,811.0 55.0,799.0" fill="#dbeafe" stroke="#111827" stroke-width="1.5"/><polygon points="92.0,787.0 92.0,811.0 70.0,799.0" fill="#dbeafe" stroke="#111827" stroke-width="1.5"/><text x="92.0" y="804.0" text-anchor="start" font-family="Arial, Helvetica, sans-serif" font-size="11" font-weight="400" fill="#111827">Triangle: track start/stop</text><rect x="629.0" y="787.0" width="28.0" height="24.0" fill="#dbeafe" stroke="#111827" stroke-width="1.5" rx="2"/><text x="643.0" y="803.0" text-anchor="middle" font-family="Arial, Helvetica, sans-serif" font-size="9" font-weight="700" fill="#111827">TS</text><text x="673.0" y="804.0" text-anchor="start" font-family="Arial, Helvetica, sans-serif" font-size="11" font-weight="400" fill="#111827">Blue box: TS marker</text><line x1="59.0" y1="814.0" x2="59.0" y2="839.0" stroke="#111827" stroke-width="1.5" stroke-linecap="round"/><text x="92.0" y="832.0" text-anchor="start" font-family="Arial, Helvetica, sans-serif" font-size="11" font-weight="400" fill="#111827">Vertical tick: segment boundary</text><text x="629.0" y="832.0" text-anchor="start" font-family="Arial, Helvetica, sans-serif" font-size="11" font-weight="700" fill="#111827">EP</text><text x="673.0" y="832.0" text-anchor="start" font-family="Arial, Helvetica, sans-serif" font-size="11" font-weight="400" fill="#111827">Endpoint text: JOIN/SPLIT</text></svg>