<svg xmlns="http://www.w3.org/2000/svg" width="1200" height="788" viewBox="0 0 1200 788" role="img" aria-label="TYM time-yard diagram"><rect width="100%" height="100%" fill="#ffffff"/><style>text{dominant-baseline:auto}</style><text x="600.0" y="38.0" text-anchor="middle" font-family="Arial, Helvetica, sans-serif" font-size="16" font-weight="700" fill="#111827">a) Text-order time segments</text><line x1="105.0" y1="76.0" x2="1120.0" y2="76.0" stroke="#374151" stroke-width="2" stroke-linecap="round"/><line x1="105.0" y1="64.0" x2="105.0" y2="88.0" stroke="#111827" stroke-width="1.5" stroke-linecap="round"/><text x="113.0" y="54.0" text-anchor="middle" font-family="Arial, Helvetica, sans-serif" font-size="13" font-weight="400" fill="#111827">TS1</text><line x1="274.2" y1="64.0" x2="274.2" y2="88.0" stroke="#111827" stroke-width="1.5" stroke-linecap="round"/><text x="282.2" y="110.0" text-anchor="middle" font-family="Arial, Helvetica, sans-serif" font-size="13" font-weight="400" fill="#111827">TS2</text><line x1="443.3" y1="64.0" x2="443.3" y2="88.0" stroke="#111827" stroke-width="1.5" stroke-linecap="round"/><text x="451.3" y="54.0" text-anchor="middle" font-family="Arial, Helvetica, sans-serif" font-size="13" font-weight="400" fill="#111827">TS3</text><line x1="612.5" y1="64.0" x2="612.5" y2="88.0" stroke="#111827" stroke-width="1.5" stroke-linecap="round"/><text x="620.5" y="110.0" text-anchor="middle" font-family="Arial, Helvetica, sans-serif" font-size="13" font-weight="400" fill="#111827">TS4</text><line x1="781.7" y1="64.0" x2="781.7" y2="88.0" stroke="#111827" stroke-width="1.5" stroke-linecap="round"/><text x="789.7" y="54.0" text-anchor="middle" font-family="Arial, Helvetica, sans-serif" font-size="13" font-weight="400" fill="#111827">TS5</text><line x1="950.8" y1="64.0" x2="950.8" y2="88.0" stroke="#111827" stroke-width="1.5" stroke-linecap="round"/><text x="958.8" y="110.0" text-anchor="middle" font-family="Arial, Helvetica, sans-serif" font-size="13" font-weight="400" fill="#111827">TS6</text><line x1="1120.0" y1="64.0" x2="1120.0" y2="88.0" stroke="#111827" stroke-width="1.5" stroke-linecap="round"/><text x="600.0" y="158.0" text-anchor="middle" font-family="Arial, Helvetica, sans-serif" font-size="16" font-weight="700" fill="#111827">b) TYM time yard</text><text x="18.0" y="205.0" text-anchor="start" font-family="Arial, Helvetica, sans-serif" font-size="12" font-weight="700" fill="#111827">TT1: Adam&amp;Johan</text><polygon points="57.0,188.0 57.0,212.0 79.0,200.0" fill="#dbeafe" stroke="#111827" stroke-width="1.5"/><polygon points="298.0,188.0 298.0,212.0 276.0,200.0" fill="#dbeafe" stroke="#111827" stroke-width="1.5"/><line x1="105.0" y1="200.0" x2="250.0" y2="200.0" stroke="#111827" stroke-width="5" stroke-linecap="round"/><rect x="92.0" y="188.0" width="26.0" height="24.0" fill="#dbeafe" stroke="#111827" stroke-width="1.5" rx="2"/><text x="105.0" y="204.0" text-anchor="middle" font-family="Arial, Helvetica, sans-serif" font-size="10" font-weight="700" fill="#111827">TS1</text><line x1="250.0" y1="187.0" x2="250.0" y2="213.0" stroke="#111827" stroke-width="1.4" stroke-linecap="round"/><text x="177.5" y="175.0" text-anchor="middle" font-family="Arial, Helvetica, sans-serif" font-size="12" font-weight="400" fill="#111827">TS1: Adam and Johan grew up in the same house.</text><text x="18.0" y="291.0" text-anchor="start" font-family="Arial, Helvetica, sans-serif" font-size="12" font-weight="700" fill="#111827">TT2: Karl&amp;Adam</text><polygon points="57.0,274.0 57.0,298.0 79.0,286.0" fill="#dbeafe" stroke="#111827" stroke-width="1.5"/><polygon points="298.0,274.0 298.0,298.0 276.0,286.0" fill="#dbeafe" stroke="#111827" stroke-width="1.5"/><line x1="105.0" y1="286.0" x2="250.0" y2="286.0" stroke="#111827" stroke-width="5" stroke-linecap="round" stroke-dasharray="7 7"/><rect x="92.0" y="274.0" width="26.0" height="24.0" fill="#dbeafe" stroke="#111827" stroke-width="1.5" rx="2"/><text x="105.0" y="290.0" text-anchor="middle" font-family="Arial, Helvetica, sans-serif" font-size="10" font-weight="700" fill="#111827">TS2</text><line x1="250.0" y1="273.0" x2="250.0" y2="299.0" stroke="#111827" stroke-width="1.4" stroke-linecap="round"/><text x="177.5" y="261.0" text-anchor="middle" font-family="Arial, Helvetica, sans-serif" font-size="12" font-weight="400" fill="#111827">TS2: Years earlier, Karl had carried Adam throug...</text><text x="177.5" y="277.0" text-anchor="middle" font-family="Arial, Helvetica, sans-serif" font-size="10" font-weight="700" fill="#111827">REM</text><text x="18.0" y="377.0" text-anchor="start" font-family="Arial, Helvetica, sans-serif" font-size="12" font-weight="700" fill="#111827">TT3: Margaret</text><polygon points="57.0,360.0 57.0,384.0 79.0,372.0" fill="#dbeafe" stroke="#111827" stroke-width="1.5"/><polygon points="298.0,360.0 298.0,384.0 276.0,372.0" fill="#dbeafe" stroke="#111827" stroke-width="1.5"/><line x1="105.0" y1="372.0" x2="250.0" y2="372.0" stroke="#111827" stroke-width="2.4" stroke-linecap="round" stroke-dasharray="7 7"/><rect x="92.0" y="360.0" width="26.0" height="24.0" fill="#dbeafe" stroke="#111827" stroke-width="1.5" rx="2"/><text x="105.0" y="376.0" text-anchor="middle" font-family="Arial, Helvetica, sans-serif" font-size="10" font-weight="700" fill="#111827">TS3</text><line x1="250.0" y1="359.0" x2="250.0" y2="385.0" stroke="#111827" stroke-width="1.4" stroke-linecap="round"/><text x="177.5" y="347.0" text-anchor="middle" font-family="Arial, Helvetica, sans-serif" font-size="12" font-weight="400" fill="#111827">TS3: Margaret remembered her mother in Jakarta.</text><text x="177.5" y="363.0" text-anchor="middle" font-family="Arial, Helvetica, sans-serif" font-size="10" font-weight="700" fill="#111827">REM</text><text x="18.0" y="463.0" text-anchor="start" font-family="Arial, Helvetica, sans-serif" font-size="12" font-weight="700" fill="#111827">TT4: Karl</text><polygon points="57.0,446.0 57.0,470.0 79.0,458.0" fill="#dbeafe" stroke="#111827" stroke-width="1.5"/><polygon points="298.0,446.0 298.0,470.0 276.0,458.0" fill="#dbeafe" stroke="#111827" stroke-width="1.5"/><line x1="105.0" y1="458.0" x2="250.0" y2="458.0" stroke="#111827" stroke-width="2.4" stroke-linecap="round"/><rect x="92.0" y="446.0" width="26.0" height="24.0" fill="#dbeafe" stroke="#111827" stroke-width="1.5" rx="2"/><text x="105.0" y="462.0" text-anchor="middle" font-family="Arial, Helvetica, sans-serif" font-size="10" font-weight="700" fill="#111827">TS4</text><line x1="250.0" y1="445.0" x2="250.0" y2="471.0" stroke="#111827" stroke-width="1.4" stroke-linecap="round"/><text x="177.5" y="433.0" text-anchor="middle" font-family="Arial, Helvetica, sans-serif" font-size="12" font-weight="400" fill="#111827">TS4: Meanwhile, Karl traveled alone across the i...</text><text x="18.0" y="549.0" text-anchor="start" font-family="Arial, Helvetica, sans-serif" font-size="12" font-weight="700" fill="#111827">TT5: Adam&amp;Margaret</text><polygon points="57.0,532.0 57.0,556.0 79.0,544.0" fill="#dbeafe" stroke="#111827" stroke-width="1.5"/><polygon points="298.0,532.0 298.0,556.0 276.0,544.0" fill="#dbeafe" stroke="#111827" stroke-width="1.5"/><line x1="105.0" y1="544.0" x2="250.0" y2="544.0" stroke="#111827" stroke-width="5" stroke-linecap="round"/><rect x="92.0" y="532.0" width="26.0" height="24.0" fill="#dbeafe" stroke="#111827" stroke-width="1.5" rx="2"/><text x="105.0" y="548.0" text-anchor="middle" font-family="Arial, Helvetica, sans-serif" font-size="10" font-weight="700" fill="#111827">TS5</text><line x1="250.0" y1="531.0" x2="250.0" y2="557.0" stroke="#111827" stroke-width="1.4" stroke-linecap="round"/><text x="177.5" y="519.0" text-anchor="middle" font-family="Arial, Helvetica, sans-serif" font-size="12" font-weight="400" fill="#111827">TS5: Adam searched for Margaret after the storm....</text><text x="18.0" y="635.0" text-anchor="start" font-family="Arial, Helvetica, sans-serif" font-size="12" font-weight="700" fill="#111827">TT6: Adam</text><polygon points="57.0,618.0 57.0,642.0 79.0,630.0" fill="#dbeafe" stroke="#111827" stroke-width="1.5"/><polygon points="298.0,618.0 298.0,642.0 276.0,630.0" fill="#dbeafe" stroke="#111827" stroke-width="1.5"/><line x1="105.0" y1="630.0" x2="250.0" y2="630.0" stroke="#111827" stroke-width="5" stroke-linecap="round"/><rect x="92.0" y="618.0" width="26.0" height="24.0" fill="#dbeafe" stroke="#111827" stroke-width="1.5" rx="2"/><text x="105.0" y="634.0" text-anchor="middle" font-family="Arial, Helvetica, sans-serif" font-size="10" font-weight="700" fill="#111827">TS6</text><line x1="250.0" y1="617.0" x2="250.0" y2="643.0" stroke="#111827" stroke-width="1.4" stroke-linecap="round"/><text x="177.5" y="605.0" text-anchor="middle" font-family="Arial, Helvetica, sans-serif" font-size="12" font-weight="400" fill="#111827">TS6: Adam disappeared before dawn.</text><text x="105.0" y="724.0" text-anchor="start" font-family="Arial, Helvetica, sans-serif" font-size="11" font-weight="400" fill="#111827">EP1: SPLIT at TS4</text><text x="285.0" y="724.0" text-anchor="start" font-family="Arial, Helvetica, sans-serif" font-size="11" font-weight="400" fill="#111827">EP2: JOIN at TS5</text><text x="465.0" y="724.0" text-anchor="start" font-family="Arial, Helvetica, sans-serif" font-size="11" font-weight="400" fill="#111827">EP3: SPLIT at TS6</text></svg>